<mxfile host="app.diagrams.net" agent="Mozilla/5.0 (Windows NT 10.0; Win64; x64) AppleWebKit/537.36 (KHTML, like Gecko) Chrome/131.0.0.0 Safari/537.36" version="26.0.3">
  <diagram name="PÃ¡gina-1" id="V-b4yuuRr3QizdL4ovp2">
    <mxGraphModel dx="1509" dy="1709" grid="0" gridSize="10" guides="1" tooltips="1" connect="1" arrows="1" fold="1" page="0" pageScale="1" pageWidth="827" pageHeight="1169" math="0" shadow="0">
      <root>
        <mxCell id="0" />
        <mxCell id="1" parent="0" />
        <mxCell id="1EJ49BstGtNnwhhAlAts-1" value="Users" style="shape=table;startSize=30;container=1;collapsible=1;childLayout=tableLayout;fixedRows=1;rowLines=0;fontStyle=1;align=center;resizeLast=1;html=1;" vertex="1" parent="1">
          <mxGeometry x="-105" y="-136" width="180" height="420" as="geometry" />
        </mxCell>
        <mxCell id="1EJ49BstGtNnwhhAlAts-2" value="" style="shape=tableRow;horizontal=0;startSize=0;swimlaneHead=0;swimlaneBody=0;fillColor=none;collapsible=0;dropTarget=0;points=[[0,0.5],[1,0.5]];portConstraint=eastwest;top=0;left=0;right=0;bottom=1;" vertex="1" parent="1EJ49BstGtNnwhhAlAts-1">
          <mxGeometry y="30" width="180" height="30" as="geometry" />
        </mxCell>
        <mxCell id="1EJ49BstGtNnwhhAlAts-3" value="PK" style="shape=partialRectangle;connectable=0;fillColor=none;top=0;left=0;bottom=0;right=0;fontStyle=1;overflow=hidden;whiteSpace=wrap;html=1;" vertex="1" parent="1EJ49BstGtNnwhhAlAts-2">
          <mxGeometry width="33.75" height="30" as="geometry">
            <mxRectangle width="33.75" height="30" as="alternateBounds" />
          </mxGeometry>
        </mxCell>
        <mxCell id="1EJ49BstGtNnwhhAlAts-4" value="id" style="shape=partialRectangle;connectable=0;fillColor=none;top=0;left=0;bottom=0;right=0;align=left;spacingLeft=6;fontStyle=5;overflow=hidden;whiteSpace=wrap;html=1;" vertex="1" parent="1EJ49BstGtNnwhhAlAts-2">
          <mxGeometry x="33.75" width="146.25" height="30" as="geometry">
            <mxRectangle width="146.25" height="30" as="alternateBounds" />
          </mxGeometry>
        </mxCell>
        <mxCell id="1EJ49BstGtNnwhhAlAts-5" value="" style="shape=tableRow;horizontal=0;startSize=0;swimlaneHead=0;swimlaneBody=0;fillColor=none;collapsible=0;dropTarget=0;points=[[0,0.5],[1,0.5]];portConstraint=eastwest;top=0;left=0;right=0;bottom=0;" vertex="1" parent="1EJ49BstGtNnwhhAlAts-1">
          <mxGeometry y="60" width="180" height="30" as="geometry" />
        </mxCell>
        <mxCell id="1EJ49BstGtNnwhhAlAts-6" value="" style="shape=partialRectangle;connectable=0;fillColor=none;top=0;left=0;bottom=0;right=0;editable=1;overflow=hidden;whiteSpace=wrap;html=1;" vertex="1" parent="1EJ49BstGtNnwhhAlAts-5">
          <mxGeometry width="33.75" height="30" as="geometry">
            <mxRectangle width="33.75" height="30" as="alternateBounds" />
          </mxGeometry>
        </mxCell>
        <mxCell id="1EJ49BstGtNnwhhAlAts-7" value="Name" style="shape=partialRectangle;connectable=0;fillColor=none;top=0;left=0;bottom=0;right=0;align=left;spacingLeft=6;overflow=hidden;whiteSpace=wrap;html=1;" vertex="1" parent="1EJ49BstGtNnwhhAlAts-5">
          <mxGeometry x="33.75" width="146.25" height="30" as="geometry">
            <mxRectangle width="146.25" height="30" as="alternateBounds" />
          </mxGeometry>
        </mxCell>
        <mxCell id="1EJ49BstGtNnwhhAlAts-8" value="" style="shape=tableRow;horizontal=0;startSize=0;swimlaneHead=0;swimlaneBody=0;fillColor=none;collapsible=0;dropTarget=0;points=[[0,0.5],[1,0.5]];portConstraint=eastwest;top=0;left=0;right=0;bottom=0;" vertex="1" parent="1EJ49BstGtNnwhhAlAts-1">
          <mxGeometry y="90" width="180" height="30" as="geometry" />
        </mxCell>
        <mxCell id="1EJ49BstGtNnwhhAlAts-9" value="" style="shape=partialRectangle;connectable=0;fillColor=none;top=0;left=0;bottom=0;right=0;editable=1;overflow=hidden;whiteSpace=wrap;html=1;" vertex="1" parent="1EJ49BstGtNnwhhAlAts-8">
          <mxGeometry width="33.75" height="30" as="geometry">
            <mxRectangle width="33.75" height="30" as="alternateBounds" />
          </mxGeometry>
        </mxCell>
        <mxCell id="1EJ49BstGtNnwhhAlAts-10" value="UserName" style="shape=partialRectangle;connectable=0;fillColor=none;top=0;left=0;bottom=0;right=0;align=left;spacingLeft=6;overflow=hidden;whiteSpace=wrap;html=1;" vertex="1" parent="1EJ49BstGtNnwhhAlAts-8">
          <mxGeometry x="33.75" width="146.25" height="30" as="geometry">
            <mxRectangle width="146.25" height="30" as="alternateBounds" />
          </mxGeometry>
        </mxCell>
        <mxCell id="1EJ49BstGtNnwhhAlAts-11" value="" style="shape=tableRow;horizontal=0;startSize=0;swimlaneHead=0;swimlaneBody=0;fillColor=none;collapsible=0;dropTarget=0;points=[[0,0.5],[1,0.5]];portConstraint=eastwest;top=0;left=0;right=0;bottom=0;" vertex="1" parent="1EJ49BstGtNnwhhAlAts-1">
          <mxGeometry y="120" width="180" height="30" as="geometry" />
        </mxCell>
        <mxCell id="1EJ49BstGtNnwhhAlAts-12" value="" style="shape=partialRectangle;connectable=0;fillColor=none;top=0;left=0;bottom=0;right=0;editable=1;overflow=hidden;whiteSpace=wrap;html=1;" vertex="1" parent="1EJ49BstGtNnwhhAlAts-11">
          <mxGeometry width="33.75" height="30" as="geometry">
            <mxRectangle width="33.75" height="30" as="alternateBounds" />
          </mxGeometry>
        </mxCell>
        <mxCell id="1EJ49BstGtNnwhhAlAts-13" value="Email" style="shape=partialRectangle;connectable=0;fillColor=none;top=0;left=0;bottom=0;right=0;align=left;spacingLeft=6;overflow=hidden;whiteSpace=wrap;html=1;" vertex="1" parent="1EJ49BstGtNnwhhAlAts-11">
          <mxGeometry x="33.75" width="146.25" height="30" as="geometry">
            <mxRectangle width="146.25" height="30" as="alternateBounds" />
          </mxGeometry>
        </mxCell>
        <mxCell id="1EJ49BstGtNnwhhAlAts-14" value="" style="shape=tableRow;horizontal=0;startSize=0;swimlaneHead=0;swimlaneBody=0;fillColor=none;collapsible=0;dropTarget=0;points=[[0,0.5],[1,0.5]];portConstraint=eastwest;top=0;left=0;right=0;bottom=0;" vertex="1" parent="1EJ49BstGtNnwhhAlAts-1">
          <mxGeometry y="150" width="180" height="30" as="geometry" />
        </mxCell>
        <mxCell id="1EJ49BstGtNnwhhAlAts-15" value="" style="shape=partialRectangle;connectable=0;fillColor=none;top=0;left=0;bottom=0;right=0;editable=1;overflow=hidden;whiteSpace=wrap;html=1;" vertex="1" parent="1EJ49BstGtNnwhhAlAts-14">
          <mxGeometry width="33.75" height="30" as="geometry">
            <mxRectangle width="33.75" height="30" as="alternateBounds" />
          </mxGeometry>
        </mxCell>
        <mxCell id="1EJ49BstGtNnwhhAlAts-16" value="Password" style="shape=partialRectangle;connectable=0;fillColor=none;top=0;left=0;bottom=0;right=0;align=left;spacingLeft=6;overflow=hidden;whiteSpace=wrap;html=1;" vertex="1" parent="1EJ49BstGtNnwhhAlAts-14">
          <mxGeometry x="33.75" width="146.25" height="30" as="geometry">
            <mxRectangle width="146.25" height="30" as="alternateBounds" />
          </mxGeometry>
        </mxCell>
        <mxCell id="1EJ49BstGtNnwhhAlAts-17" value="" style="shape=tableRow;horizontal=0;startSize=0;swimlaneHead=0;swimlaneBody=0;fillColor=none;collapsible=0;dropTarget=0;points=[[0,0.5],[1,0.5]];portConstraint=eastwest;top=0;left=0;right=0;bottom=0;" vertex="1" parent="1EJ49BstGtNnwhhAlAts-1">
          <mxGeometry y="180" width="180" height="30" as="geometry" />
        </mxCell>
        <mxCell id="1EJ49BstGtNnwhhAlAts-18" value="" style="shape=partialRectangle;connectable=0;fillColor=none;top=0;left=0;bottom=0;right=0;editable=1;overflow=hidden;whiteSpace=wrap;html=1;" vertex="1" parent="1EJ49BstGtNnwhhAlAts-17">
          <mxGeometry width="33.75" height="30" as="geometry">
            <mxRectangle width="33.75" height="30" as="alternateBounds" />
          </mxGeometry>
        </mxCell>
        <mxCell id="1EJ49BstGtNnwhhAlAts-19" value="DateOfBirth" style="shape=partialRectangle;connectable=0;fillColor=none;top=0;left=0;bottom=0;right=0;align=left;spacingLeft=6;overflow=hidden;whiteSpace=wrap;html=1;" vertex="1" parent="1EJ49BstGtNnwhhAlAts-17">
          <mxGeometry x="33.75" width="146.25" height="30" as="geometry">
            <mxRectangle width="146.25" height="30" as="alternateBounds" />
          </mxGeometry>
        </mxCell>
        <mxCell id="1EJ49BstGtNnwhhAlAts-20" value="" style="shape=tableRow;horizontal=0;startSize=0;swimlaneHead=0;swimlaneBody=0;fillColor=none;collapsible=0;dropTarget=0;points=[[0,0.5],[1,0.5]];portConstraint=eastwest;top=0;left=0;right=0;bottom=0;" vertex="1" parent="1EJ49BstGtNnwhhAlAts-1">
          <mxGeometry y="210" width="180" height="30" as="geometry" />
        </mxCell>
        <mxCell id="1EJ49BstGtNnwhhAlAts-21" value="" style="shape=partialRectangle;connectable=0;fillColor=none;top=0;left=0;bottom=0;right=0;editable=1;overflow=hidden;whiteSpace=wrap;html=1;" vertex="1" parent="1EJ49BstGtNnwhhAlAts-20">
          <mxGeometry width="33.75" height="30" as="geometry">
            <mxRectangle width="33.75" height="30" as="alternateBounds" />
          </mxGeometry>
        </mxCell>
        <mxCell id="1EJ49BstGtNnwhhAlAts-22" value="Gender" style="shape=partialRectangle;connectable=0;fillColor=none;top=0;left=0;bottom=0;right=0;align=left;spacingLeft=6;overflow=hidden;whiteSpace=wrap;html=1;" vertex="1" parent="1EJ49BstGtNnwhhAlAts-20">
          <mxGeometry x="33.75" width="146.25" height="30" as="geometry">
            <mxRectangle width="146.25" height="30" as="alternateBounds" />
          </mxGeometry>
        </mxCell>
        <mxCell id="1EJ49BstGtNnwhhAlAts-23" value="" style="shape=tableRow;horizontal=0;startSize=0;swimlaneHead=0;swimlaneBody=0;fillColor=none;collapsible=0;dropTarget=0;points=[[0,0.5],[1,0.5]];portConstraint=eastwest;top=0;left=0;right=0;bottom=0;" vertex="1" parent="1EJ49BstGtNnwhhAlAts-1">
          <mxGeometry y="240" width="180" height="30" as="geometry" />
        </mxCell>
        <mxCell id="1EJ49BstGtNnwhhAlAts-24" value="" style="shape=partialRectangle;connectable=0;fillColor=none;top=0;left=0;bottom=0;right=0;editable=1;overflow=hidden;whiteSpace=wrap;html=1;" vertex="1" parent="1EJ49BstGtNnwhhAlAts-23">
          <mxGeometry width="33.75" height="30" as="geometry">
            <mxRectangle width="33.75" height="30" as="alternateBounds" />
          </mxGeometry>
        </mxCell>
        <mxCell id="1EJ49BstGtNnwhhAlAts-25" value="ProfilePictureURL" style="shape=partialRectangle;connectable=0;fillColor=none;top=0;left=0;bottom=0;right=0;align=left;spacingLeft=6;overflow=hidden;whiteSpace=wrap;html=1;" vertex="1" parent="1EJ49BstGtNnwhhAlAts-23">
          <mxGeometry x="33.75" width="146.25" height="30" as="geometry">
            <mxRectangle width="146.25" height="30" as="alternateBounds" />
          </mxGeometry>
        </mxCell>
        <mxCell id="1EJ49BstGtNnwhhAlAts-26" value="" style="shape=tableRow;horizontal=0;startSize=0;swimlaneHead=0;swimlaneBody=0;fillColor=none;collapsible=0;dropTarget=0;points=[[0,0.5],[1,0.5]];portConstraint=eastwest;top=0;left=0;right=0;bottom=0;" vertex="1" parent="1EJ49BstGtNnwhhAlAts-1">
          <mxGeometry y="270" width="180" height="30" as="geometry" />
        </mxCell>
        <mxCell id="1EJ49BstGtNnwhhAlAts-27" value="" style="shape=partialRectangle;connectable=0;fillColor=none;top=0;left=0;bottom=0;right=0;editable=1;overflow=hidden;whiteSpace=wrap;html=1;" vertex="1" parent="1EJ49BstGtNnwhhAlAts-26">
          <mxGeometry width="33.75" height="30" as="geometry">
            <mxRectangle width="33.75" height="30" as="alternateBounds" />
          </mxGeometry>
        </mxCell>
        <mxCell id="1EJ49BstGtNnwhhAlAts-28" value="ReferralCode" style="shape=partialRectangle;connectable=0;fillColor=none;top=0;left=0;bottom=0;right=0;align=left;spacingLeft=6;overflow=hidden;whiteSpace=wrap;html=1;" vertex="1" parent="1EJ49BstGtNnwhhAlAts-26">
          <mxGeometry x="33.75" width="146.25" height="30" as="geometry">
            <mxRectangle width="146.25" height="30" as="alternateBounds" />
          </mxGeometry>
        </mxCell>
        <mxCell id="1EJ49BstGtNnwhhAlAts-29" value="" style="shape=tableRow;horizontal=0;startSize=0;swimlaneHead=0;swimlaneBody=0;fillColor=none;collapsible=0;dropTarget=0;points=[[0,0.5],[1,0.5]];portConstraint=eastwest;top=0;left=0;right=0;bottom=0;" vertex="1" parent="1EJ49BstGtNnwhhAlAts-1">
          <mxGeometry y="300" width="180" height="30" as="geometry" />
        </mxCell>
        <mxCell id="1EJ49BstGtNnwhhAlAts-30" value="" style="shape=partialRectangle;connectable=0;fillColor=none;top=0;left=0;bottom=0;right=0;editable=1;overflow=hidden;whiteSpace=wrap;html=1;" vertex="1" parent="1EJ49BstGtNnwhhAlAts-29">
          <mxGeometry width="33.75" height="30" as="geometry">
            <mxRectangle width="33.75" height="30" as="alternateBounds" />
          </mxGeometry>
        </mxCell>
        <mxCell id="1EJ49BstGtNnwhhAlAts-31" value="Points" style="shape=partialRectangle;connectable=0;fillColor=none;top=0;left=0;bottom=0;right=0;align=left;spacingLeft=6;overflow=hidden;whiteSpace=wrap;html=1;" vertex="1" parent="1EJ49BstGtNnwhhAlAts-29">
          <mxGeometry x="33.75" width="146.25" height="30" as="geometry">
            <mxRectangle width="146.25" height="30" as="alternateBounds" />
          </mxGeometry>
        </mxCell>
        <mxCell id="1EJ49BstGtNnwhhAlAts-32" value="" style="shape=tableRow;horizontal=0;startSize=0;swimlaneHead=0;swimlaneBody=0;fillColor=none;collapsible=0;dropTarget=0;points=[[0,0.5],[1,0.5]];portConstraint=eastwest;top=0;left=0;right=0;bottom=0;" vertex="1" parent="1EJ49BstGtNnwhhAlAts-1">
          <mxGeometry y="330" width="180" height="30" as="geometry" />
        </mxCell>
        <mxCell id="1EJ49BstGtNnwhhAlAts-33" value="" style="shape=partialRectangle;connectable=0;fillColor=none;top=0;left=0;bottom=0;right=0;editable=1;overflow=hidden;whiteSpace=wrap;html=1;" vertex="1" parent="1EJ49BstGtNnwhhAlAts-32">
          <mxGeometry width="33.75" height="30" as="geometry">
            <mxRectangle width="33.75" height="30" as="alternateBounds" />
          </mxGeometry>
        </mxCell>
        <mxCell id="1EJ49BstGtNnwhhAlAts-34" value="IsActive" style="shape=partialRectangle;connectable=0;fillColor=none;top=0;left=0;bottom=0;right=0;align=left;spacingLeft=6;overflow=hidden;whiteSpace=wrap;html=1;" vertex="1" parent="1EJ49BstGtNnwhhAlAts-32">
          <mxGeometry x="33.75" width="146.25" height="30" as="geometry">
            <mxRectangle width="146.25" height="30" as="alternateBounds" />
          </mxGeometry>
        </mxCell>
        <mxCell id="1EJ49BstGtNnwhhAlAts-35" value="" style="shape=tableRow;horizontal=0;startSize=0;swimlaneHead=0;swimlaneBody=0;fillColor=none;collapsible=0;dropTarget=0;points=[[0,0.5],[1,0.5]];portConstraint=eastwest;top=0;left=0;right=0;bottom=0;" vertex="1" parent="1EJ49BstGtNnwhhAlAts-1">
          <mxGeometry y="360" width="180" height="30" as="geometry" />
        </mxCell>
        <mxCell id="1EJ49BstGtNnwhhAlAts-36" value="" style="shape=partialRectangle;connectable=0;fillColor=none;top=0;left=0;bottom=0;right=0;editable=1;overflow=hidden;whiteSpace=wrap;html=1;" vertex="1" parent="1EJ49BstGtNnwhhAlAts-35">
          <mxGeometry width="33.75" height="30" as="geometry">
            <mxRectangle width="33.75" height="30" as="alternateBounds" />
          </mxGeometry>
        </mxCell>
        <mxCell id="1EJ49BstGtNnwhhAlAts-37" value="CreatedAt" style="shape=partialRectangle;connectable=0;fillColor=none;top=0;left=0;bottom=0;right=0;align=left;spacingLeft=6;overflow=hidden;whiteSpace=wrap;html=1;" vertex="1" parent="1EJ49BstGtNnwhhAlAts-35">
          <mxGeometry x="33.75" width="146.25" height="30" as="geometry">
            <mxRectangle width="146.25" height="30" as="alternateBounds" />
          </mxGeometry>
        </mxCell>
        <mxCell id="1EJ49BstGtNnwhhAlAts-38" value="" style="shape=tableRow;horizontal=0;startSize=0;swimlaneHead=0;swimlaneBody=0;fillColor=none;collapsible=0;dropTarget=0;points=[[0,0.5],[1,0.5]];portConstraint=eastwest;top=0;left=0;right=0;bottom=0;" vertex="1" parent="1EJ49BstGtNnwhhAlAts-1">
          <mxGeometry y="390" width="180" height="30" as="geometry" />
        </mxCell>
        <mxCell id="1EJ49BstGtNnwhhAlAts-39" value="" style="shape=partialRectangle;connectable=0;fillColor=none;top=0;left=0;bottom=0;right=0;editable=1;overflow=hidden;whiteSpace=wrap;html=1;" vertex="1" parent="1EJ49BstGtNnwhhAlAts-38">
          <mxGeometry width="33.75" height="30" as="geometry">
            <mxRectangle width="33.75" height="30" as="alternateBounds" />
          </mxGeometry>
        </mxCell>
        <mxCell id="1EJ49BstGtNnwhhAlAts-40" value="UpdatedAt" style="shape=partialRectangle;connectable=0;fillColor=none;top=0;left=0;bottom=0;right=0;align=left;spacingLeft=6;overflow=hidden;whiteSpace=wrap;html=1;" vertex="1" parent="1EJ49BstGtNnwhhAlAts-38">
          <mxGeometry x="33.75" width="146.25" height="30" as="geometry">
            <mxRectangle width="146.25" height="30" as="alternateBounds" />
          </mxGeometry>
        </mxCell>
      </root>
    </mxGraphModel>
  </diagram>
</mxfile>
